<?xml version="1.0" encoding="UTF-8" standalone="no"?>
<!-- Created with Inkscape (http://www.inkscape.org/) -->

<svg
   xmlns:dc="http://purl.org/dc/elements/1.1/"
   xmlns:cc="http://creativecommons.org/ns#"
   xmlns:rdf="http://www.w3.org/1999/02/22-rdf-syntax-ns#"
   xmlns:svg="http://www.w3.org/2000/svg"
   xmlns="http://www.w3.org/2000/svg"
   xmlns:sodipodi="http://sodipodi.sourceforge.net/DTD/sodipodi-0.dtd"
   xmlns:inkscape="http://www.inkscape.org/namespaces/inkscape"
   width="100mm"
   height="100mm"
   viewBox="0 0 100 99.999999"
   version="1.1"
   id="svg8"
   sodipodi:docname="ship.svg"
   inkscape:version="0.92.4 (f8dce91, 2019-08-02)">
  <defs
     id="defs2" />
  <sodipodi:namedview
     id="base"
     pagecolor="#ffffff"
     bordercolor="#666666"
     borderopacity="1.0"
     inkscape:pageopacity="0.0"
     inkscape:pageshadow="2"
     inkscape:zoom="0.24748737"
     inkscape:cx="-106.07564"
     inkscape:cy="608.26605"
     inkscape:document-units="mm"
     inkscape:current-layer="layer1"
     showgrid="false"
     fit-margin-top="0"
     fit-margin-left="0"
     fit-margin-right="0"
     fit-margin-bottom="0"
     inkscape:window-width="1920"
     inkscape:window-height="1012"
     inkscape:window-x="0"
     inkscape:window-y="32"
     inkscape:window-maximized="1" />
  <metadata
     id="metadata5">
    <rdf:RDF>
      <cc:Work
         rdf:about="">
        <dc:format>image/svg+xml</dc:format>
        <dc:type
           rdf:resource="http://purl.org/dc/dcmitype/StillImage" />
        <dc:title></dc:title>
      </cc:Work>
    </rdf:RDF>
  </metadata>
  <g
     inkscape:label="Layer 1"
     inkscape:groupmode="layer"
     id="layer1"
     transform="translate(229.05372,-117.27915)">
    <path
       style="opacity:1;fill:#000000;fill-opacity:1;stroke:none;stroke-width:2.72543406;stroke-miterlimit:4;stroke-dasharray:none;stroke-opacity:1"
       d="m -229.05372,167.27915 c 0,0 13.45401,-50 48.27481,-50 11.57339,0 21.79319,8.51775 27.92829,21.52314 7.7319,-15.5144 21.11806,-16.32589 22.56968,-13.92304 1.75107,2.89851 1.72384,19.14347 -0.70314,25.00722 -1.17787,2.84584 -10.35261,5.01798 -16.67359,6.19846 0.55938,3.59896 0.85565,7.34571 0.85565,11.19422 0,3.84851 -0.29627,7.59526 -0.85565,11.19423 6.32098,1.18047 15.49572,3.35262 16.67359,6.19845 2.42698,5.86375 2.45421,22.10872 0.70314,25.00723 -1.45162,2.40285 -14.83778,1.59135 -22.56968,-13.92304 -6.1351,13.00539 -16.3549,21.52313 -27.92829,21.52313 -34.8208,0 -48.27481,-50 -48.27481,-50 z m 24.32378,0 a 25.255825,28.025483 0 0 0 25.25579,28.02559 25.255825,28.025483 0 0 0 25.25578,-28.02559 25.255825,28.025483 0 0 0 -25.25578,-28.02558 25.255825,28.025483 0 0 0 -25.25579,28.02558 z"
       id="path815"
       inkscape:connector-curvature="0" />
  </g>
</svg>
