<?xml version="1.0" encoding="UTF-8" standalone="no"?>
<!-- Created with Inkscape (http://www.inkscape.org/) -->

<svg
   xmlns:dc="http://purl.org/dc/elements/1.1/"
   xmlns:cc="http://creativecommons.org/ns#"
   xmlns:rdf="http://www.w3.org/1999/02/22-rdf-syntax-ns#"
   xmlns:svg="http://www.w3.org/2000/svg"
   xmlns="http://www.w3.org/2000/svg"
   xmlns:sodipodi="http://sodipodi.sourceforge.net/DTD/sodipodi-0.dtd"
   xmlns:inkscape="http://www.inkscape.org/namespaces/inkscape"
   width="100mm"
   height="100mm"
   viewBox="0 0 100 99.999999"
   version="1.1"
   id="svg8"
   sodipodi:docname="ship.svg"
   inkscape:version="0.92.4 (f8dce91, 2019-08-02)">
  <defs
     id="defs2" />
  <sodipodi:namedview
     id="base"
     pagecolor="#ffffff"
     bordercolor="#666666"
     borderopacity="1.0"
     inkscape:pageopacity="0.0"
     inkscape:pageshadow="2"
     inkscape:zoom="1.0993438"
     inkscape:cx="-51.525162"
     inkscape:cy="316.36545"
     inkscape:document-units="mm"
     inkscape:current-layer="layer1"
     showgrid="false"
     fit-margin-top="0"
     fit-margin-left="0"
     fit-margin-right="0"
     fit-margin-bottom="0"
     inkscape:window-width="1920"
     inkscape:window-height="1012"
     inkscape:window-x="0"
     inkscape:window-y="32"
     inkscape:window-maximized="1" />
  <metadata
     id="metadata5">
    <rdf:RDF>
      <cc:Work
         rdf:about="">
        <dc:format>image/svg+xml</dc:format>
        <dc:type
           rdf:resource="http://purl.org/dc/dcmitype/StillImage" />
        <dc:title></dc:title>
      </cc:Work>
    </rdf:RDF>
  </metadata>
  <g
     inkscape:label="Layer 1"
     inkscape:groupmode="layer"
     id="layer1"
     transform="translate(229.05372,-117.27915)">
    <path
       style="opacity:1;fill:#000000;fill-opacity:1;stroke:none;stroke-width:3.57897162;stroke-miterlimit:4;stroke-dasharray:none;stroke-opacity:1"
       d="m -179.05372,44.836309 c 0,0 50,23.200477 50,83.246451 0,19.95749 -8.51775,37.5808 -21.52314,48.16034 15.5144,13.33311 16.32589,36.41658 13.92304,38.91979 -2.89851,3.01961 -19.14347,2.97265 -25.00722,-1.2125 -2.84584,-2.03116 -5.01798,-17.85234 -6.19846,-28.75242 -3.59896,0.96461 -7.34571,1.4755 -11.19422,1.4755 -3.84851,0 -7.59526,-0.51089 -11.19423,-1.4755 -1.18047,10.90008 -3.35262,26.72126 -6.19845,28.75242 -5.86375,4.18515 -22.10872,4.23211 -25.00723,1.2125 -2.40285,-2.50321 -1.59135,-25.58668 13.92304,-38.91979 -13.00539,-10.57954 -21.52313,-28.20285 -21.52313,-48.16034 0,-60.045974 50,-83.246451 50,-83.246451 z m 0,41.944617 a 28.025483,43.551862 0 0 0 -28.02559,43.551794 28.025483,43.551862 0 0 0 28.02559,43.55179 28.025483,43.551862 0 0 0 28.02558,-43.55179 28.025483,43.551862 0 0 0 -28.02558,-43.551794 z"
       id="path815"
       inkscape:connector-curvature="0" />
  </g>
</svg>
